<svg width="33" height="30" viewBox="0 0 33 30" fill="none" xmlns="http://www.w3.org/2000/svg">
  <path
    d="M31.4881 6.76079C31.4881 6.76079 21.2498 -0.773017 13.3297 0.965554L12.7501 1.15873C11.5911 1.54508 10.6252 2.1246 10.0457 2.8973L9.65934 3.47682L6.76172 8.49936L11.7843 9.46523C13.9092 10.8175 16.6136 11.397 19.1249 10.8175L28.0109 12.556L31.4881 6.76079Z"
    fill="#76B3E1" />
  <path opacity="0.3"
    d="M31.4881 6.76079C31.4881 6.76079 21.2498 -0.773017 13.3297 0.965554L12.7501 1.15873C11.5911 1.54508 10.6252 2.1246 10.0457 2.8973L9.65934 3.47682L6.76172 8.49936L11.7843 9.46523C13.9092 10.8175 16.6136 11.397 19.1249 10.8175L28.0109 12.556L31.4881 6.76079Z"
    fill="url(#paint0_linear_443_1967)" />
  <path
    d="M10.0457 6.76243L9.27296 6.9556C5.98899 7.92148 5.02312 11.0123 6.76169 13.7167C8.69343 16.228 12.7501 17.5802 16.0341 16.6143L28.0109 12.5577C28.0109 12.5577 17.7726 5.02386 10.0457 6.76243Z"
    fill="#518AC8" />
  <path opacity="0.3"
    d="M10.0457 6.76243L9.27296 6.9556C5.98899 7.92148 5.02312 11.0123 6.76169 13.7167C8.69343 16.228 12.7501 17.5802 16.0341 16.6143L28.0109 12.5577C28.0109 12.5577 17.7726 5.02386 10.0457 6.76243Z"
    fill="url(#paint1_linear_443_1967)" />
  <path
    d="M25.8842 15.454C24.8026 14.1028 23.3424 13.1053 21.6905 12.5891C20.0386 12.0728 18.2702 12.0615 16.6118 12.5564L4.63497 16.4199L0.771484 23.181L22.407 26.8513L26.2705 19.897C27.0432 18.5448 26.85 16.9994 25.8842 15.454Z"
    fill="url(#paint2_linear_443_1967)" />
  <path
    d="M22.0207 22.2157C20.9392 20.8646 19.4789 19.867 17.827 19.3508C16.1751 18.8346 14.4067 18.8232 12.7483 19.3181L0.771484 23.1816C0.771484 23.1816 11.0097 30.9086 18.9299 28.9768L19.5094 28.7836C22.7934 27.8178 23.9524 24.727 22.0207 22.2157Z"
    fill="url(#paint3_linear_443_1967)" />
  <defs>
    <linearGradient id="paint0_linear_443_1967" x1="5.31291" y1="0.579205" x2="29.3631" y2="12.2663"
      gradientUnits="userSpaceOnUse">
      <stop offset="0.1" stop-color="#76B3E1" />
      <stop offset="0.3" stop-color="#DCF2FD" />
      <stop offset="1" stop-color="#76B3E1" />
    </linearGradient>
    <linearGradient id="paint1_linear_443_1967" x1="18.5067" y1="6.29881" x2="14.2955" y2="20.3233"
      gradientUnits="userSpaceOnUse">
      <stop stop-color="#76B3E1" />
      <stop offset="0.5" stop-color="#4377BB" />
      <stop offset="1" stop-color="#1F3B77" />
    </linearGradient>
    <linearGradient id="paint2_linear_443_1967" x1="3.5532" y1="12.4018" x2="27.8739" y2="28.9376"
      gradientUnits="userSpaceOnUse">
      <stop stop-color="#315AA9" />
      <stop offset="0.5" stop-color="#518AC8" />
      <stop offset="1" stop-color="#315AA9" />
    </linearGradient>
    <linearGradient id="paint3_linear_443_1967" x1="14.5255" y1="14.3921" x2="4.71225" y2="50.3806"
      gradientUnits="userSpaceOnUse">
      <stop stop-color="#4377BB" />
      <stop offset="0.5" stop-color="#1A336B" />
      <stop offset="1" stop-color="#1A336B" />
    </linearGradient>
  </defs>
</svg>