<svg width="32" height="28" viewBox="0 0 32 28" fill="none" xmlns="http://www.w3.org/2000/svg">
  <g clip-path="url(#clip0_443_1983)">
    <path
      d="M15.5548 16.9611C17.1912 16.9611 18.5177 15.6345 18.5177 13.9981C18.5177 12.3617 17.1912 11.0352 15.5548 11.0352C13.9184 11.0352 12.5918 12.3617 12.5918 13.9981C12.5918 15.6345 13.9184 16.9611 15.5548 16.9611Z"
      fill="#58C4DC" />
    <path
      d="M15.555 20.6654C23.737 20.6654 30.3699 17.6806 30.3699 13.9987C30.3699 10.3168 23.737 7.33203 15.555 7.33203C7.37305 7.33203 0.740234 10.3168 0.740234 13.9987C0.740234 17.6806 7.37305 20.6654 15.555 20.6654Z"
      stroke="#58C4DC" stroke-width="1.48148" />
    <path
      d="M9.78032 17.3326C13.8713 24.4184 19.7726 28.6702 22.9612 26.8293C26.1499 24.9883 25.4183 17.7518 21.3273 10.6659C17.2363 3.58013 11.335 -0.671678 8.14642 1.16927C4.9578 3.01022 5.68933 10.2468 9.78032 17.3326Z"
      stroke="#58C4DC" stroke-width="1.48148" />
    <path
      d="M9.78191 10.6672C5.69092 17.7531 4.95939 24.9896 8.14801 26.8306C11.3366 28.6715 17.2379 24.4197 21.3289 17.3339C25.4199 10.2481 26.1514 3.01152 22.9628 1.17057C19.7742 -0.670377 13.8729 3.58143 9.78191 10.6672Z"
      stroke="#58C4DC" stroke-width="1.48148" />
  </g>
  <defs>
    <clipPath id="clip0_443_1983">
      <rect width="31.1111" height="28" fill="white" />
    </clipPath>
  </defs>
</svg>