<svg width="32" height="32" viewBox="0 0 32 32" fill="none" xmlns="http://www.w3.org/2000/svg">
  <path d="M16.0009 0L29.8573 8V24L16.0009 32L2.14453 24V8L16.0009 0Z" fill="#673AB8" />
  <path
    d="M6.34723 23.5412C7.94107 25.5812 13.555 23.8584 18.8863 19.6931C24.2176 15.5279 27.2473 10.4975 25.6535 8.45747C24.0596 6.41744 18.4457 8.14027 13.1144 12.3055C7.78317 16.4708 4.75338 21.5011 6.34723 23.5412Z"
    stroke="white" stroke-width="1.0625" />
  <path
    d="M25.6531 23.5423C27.247 21.5022 24.2172 16.4718 18.8859 12.3066C13.5546 8.14135 7.9407 6.41851 6.34685 8.45854C4.753 10.4986 7.78279 15.5289 13.1141 19.6942C18.4453 23.8594 24.0593 25.5823 25.6531 23.5423Z"
    stroke="white" stroke-width="1.0625" />
  <path
    d="M16 18.125C17.1736 18.125 18.125 17.1736 18.125 16C18.125 14.8264 17.1736 13.875 16 13.875C14.8264 13.875 13.875 14.8264 13.875 16C13.875 17.1736 14.8264 18.125 16 18.125Z"
    fill="white" />
</svg>