<svg width="32" height="32" viewBox="0 0 32 32" fill="none" xmlns="http://www.w3.org/2000/svg">
  <g clip-path="url(#clip0_437_1965)">
    <path fill-rule="evenodd" clip-rule="evenodd"
      d="M7.10695 0.711944C13.0023 -0.237315 18.9977 -0.237315 24.8931 0.711944C28.0406 1.51132 30.4887 3.95941 31.2881 7.10695C32.2373 13.0023 32.2373 18.9977 31.2881 24.8931C30.4887 28.0406 28.0406 30.4887 24.8931 31.2881C18.9977 32.2373 13.0023 32.2373 7.10695 31.2881C3.95941 30.4887 1.51132 28.0406 0.711944 24.8931C-0.237315 18.9977 -0.237315 13.0023 0.711944 7.10695C1.51132 3.95941 3.95941 1.51132 7.10695 0.711944Z"
      fill="url(#paint0_radial_437_1965)" />
    <path
      d="M23.8869 16.0012H16.8774C16.8774 15.8279 16.826 15.6585 16.7297 15.5144C16.6334 15.3703 16.4966 15.258 16.3365 15.1917C16.1764 15.1254 16.0002 15.108 15.8303 15.1418C15.6603 15.1756 15.5042 15.2591 15.3816 15.3816C15.2591 15.5042 15.1756 15.6603 15.1418 15.8303C15.108 16.0002 15.1254 16.1764 15.1917 16.3365C15.258 16.4966 15.3703 16.6334 15.5144 16.7297C15.6585 16.826 15.8279 16.8774 16.0012 16.8774V23.8869C18.0926 23.8869 20.0984 23.0561 21.5772 21.5772C23.0561 20.0984 23.8869 18.0926 23.8869 16.0012Z"
      stroke="#1E1E1E" stroke-width="2.1119" stroke-linecap="round" stroke-linejoin="round" />
    <path
      d="M19.5049 13.3715C19.1283 12.8694 18.6482 12.454 18.0971 12.1536C17.546 11.8532 16.9367 11.6747 16.3107 11.6302C15.6846 11.5857 15.0562 11.6762 14.4682 11.8957C13.8801 12.1152 13.3461 12.4585 12.9023 12.9023C12.4585 13.3461 12.1152 13.8801 11.8957 14.4682C11.6762 15.0562 11.5857 15.6846 11.6302 16.3107C11.6747 16.9367 11.8532 17.546 12.1536 18.0971C12.454 18.6482 12.8694 19.1283 13.3715 19.5049"
      stroke="#1E1E1E" stroke-width="2.1119" stroke-linecap="round" stroke-linejoin="round" />
    <path
      d="M23.4365 13.3716C22.9912 12.1166 22.2353 10.9948 21.2392 10.1108C20.2432 9.22687 19.0396 8.60955 17.7405 8.31643C16.4415 8.02332 15.0894 8.06396 13.8103 8.43457C12.5312 8.80518 11.3668 9.49369 10.4257 10.4359C9.48454 11.3781 8.79735 12.5432 8.42819 13.8228C8.05903 15.1023 8.01991 16.4544 8.3145 17.7531C8.60908 19.0519 9.22776 20.2548 10.1128 21.2498C10.9979 22.2448 12.1206 22.9995 13.3761 23.4434"
      stroke="#1E1E1E" stroke-width="2.1119" stroke-linecap="round" stroke-linejoin="round" />
  </g>
  <defs>
    <radialGradient id="paint0_radial_437_1965" cx="0" cy="0" r="1" gradientUnits="userSpaceOnUse"
      gradientTransform="translate(16 16) rotate(90) scale(16)">
      <stop stop-color="white" />
      <stop offset="1" stop-color="#C9C9C9" />
    </radialGradient>
    <clipPath id="clip0_437_1965">
      <rect width="32" height="32" fill="white" />
    </clipPath>
  </defs>
</svg>