<svg width="27" height="32" viewBox="0 0 27 32" fill="none" xmlns="http://www.w3.org/2000/svg">
  <g clip-path="url(#clip0_443_1979)">
    <path
      d="M24.8959 4.23029C21.9399 -0.0273399 16.0552 -1.2748 11.8247 1.40995L4.36706 6.18283C2.33316 7.45741 0.922995 9.54554 0.516215 11.9049C0.163673 13.8845 0.461978 15.9184 1.41113 17.6811C0.760283 18.6574 0.326384 19.7422 0.136554 20.8811C-0.297344 23.2947 0.272147 25.7896 1.68232 27.7693C4.66537 32.0269 10.523 33.2744 14.7535 30.5896L22.2111 25.8438C24.245 24.5693 25.6552 22.4811 26.062 20.1218C26.4145 18.1422 26.1162 16.1083 25.1671 14.3455C25.8179 13.3693 26.2518 12.2845 26.4416 11.1455C26.9027 8.70486 26.3332 6.20995 24.8959 4.23029Z"
      fill="#FF3E00" />
    <path
      d="M11.0904 28.1768C8.67687 28.8005 6.15484 27.8514 4.74467 25.8175C3.87687 24.6243 3.55145 23.1327 3.79552 21.6683C3.84975 21.4243 3.90399 21.2073 3.95823 20.9632L4.09382 20.5293L4.47348 20.8005C5.3684 21.4514 6.34467 21.9395 7.4023 22.2649L7.67348 22.3463L7.64636 22.6175C7.61925 22.9971 7.72772 23.4039 7.94467 23.7293C8.37857 24.3531 9.13789 24.6514 9.87009 24.4615C10.0328 24.4073 10.1955 24.3531 10.3311 24.2717L17.7616 19.526C18.1413 19.2819 18.3853 18.9293 18.4667 18.4954C18.5481 18.0616 18.4396 17.6005 18.1955 17.248C17.7616 16.6243 17.0023 16.3531 16.2701 16.5429C16.1074 16.5971 15.9447 16.6514 15.8091 16.7327L12.9616 18.5497C12.5006 18.848 11.9853 19.0649 11.443 19.2005C9.02941 19.8243 6.50738 18.8751 5.09721 16.8412C4.25653 15.648 3.90399 14.1565 4.17518 12.6921C4.41924 11.2819 5.28704 10.0073 6.50738 9.24799L13.965 4.50223C14.426 4.20392 14.9413 3.98698 15.4837 3.82426C17.8972 3.20053 20.4192 4.14969 21.8294 6.18359C22.6972 7.37681 23.0226 8.86833 22.7786 10.3327C22.7243 10.5768 22.6701 10.7938 22.5887 11.0378L22.4531 11.4717L22.0735 11.2005C21.1786 10.5497 20.2023 10.0616 19.1447 9.73613L18.8735 9.65477L18.9006 9.38358C18.9277 9.00392 18.8192 8.59714 18.6023 8.27172C18.1684 7.64799 17.4091 7.37681 16.6769 7.56664C16.5142 7.62087 16.3514 7.67511 16.2159 7.75647L8.78535 12.5022C8.40569 12.7463 8.16162 13.0988 8.08026 13.5327C7.99891 13.9666 8.10738 14.4277 8.35145 14.7802C8.78535 15.4039 9.54467 15.6751 10.2769 15.4853C10.4396 15.431 10.6023 15.3768 10.7379 15.2955L13.5853 13.4785C14.0464 13.1802 14.5616 12.9632 15.104 12.8005C17.5175 12.1768 20.0396 13.126 21.4498 15.1599C22.3175 16.3531 22.643 17.8446 22.3989 19.309C22.1548 20.7192 21.287 21.9938 20.0667 22.7531L12.6091 27.4988C12.1481 27.7971 11.6328 28.0141 11.0904 28.1768Z"
      fill="white" />
  </g>
  <defs>
    <clipPath id="clip0_443_1979">
      <rect width="26.6034" height="32" fill="white" />
    </clipPath>
  </defs>
</svg>